<svg xmlns="http://www.w3.org/2000/svg" version="1.0" viewBox="0 0 4096 5120" preserveAspectRatio="xMidYMid meet" x="0px" y="0px"><metadata>
Created by potrace 1.14, written by Peter Selinger 2001-2017
</metadata><g transform="translate(0.000000,4096.000000) scale(0.100000,-0.100000)" fill="#000000" stroke="none"><path d="M20225 30019 c-514 -53 -1019 -224 -1437 -487 -248 -155 -414 -287 -618 -492 -516 -516 -844 -1173 -945 -1890 -37 -268 -38 -662 0 -841 8 -40 14 -74 12 -75 -1 -2 -53 30 -114 69 -272 175 -356 224 -493 293 -504 252 -987 374 -1475 374 -761 0 -1506 -264 -2102 -743 -374 -301 -699 -700 -889 -1092 -259 -536 -373 -1035 -361 -1575 6 -263 27 -423 88 -670 128 -517 326 -927 635 -1315 113 -141 387 -416 529 -529 219 -175 494 -346 730 -454 66 -30 121 -55 122 -56 2 -2 -53 -26 -121 -55 -125 -53 -187 -87 -396 -220 -542 -343 -940 -781 -1224 -1349 -167 -334 -275 -691 -333 -1103 -25 -177 -24 -632 1 -814 63 -459 197 -854 426 -1250 440 -763 1135 -1307 1973 -1545 750 -213 1580 -155 2288 161 191 84 485 251 620 350 37 27 69 49 71 49 3 0 0 -28 -8 -62 -51 -241 -42 -675 20 -1033 238 -1367 1339 -2463 2711 -2700 226 -39 336 -48 585 -48 245 -1 420 14 630 54 1108 210 2043 970 2470 2010 205 499 292 1068 230 1504 -11 77 -20 171 -20 209 0 65 1 68 19 55 196 -144 255 -180 481 -293 421 -210 739 -308 1175 -362 196 -25 589 -25 780 0 632 80 1192 314 1680 702 134 106 403 374 506 504 418 524 665 1116 740 1775 18 156 16 540 -4 701 -84 674 -344 1271 -779 1789 -107 128 -354 365 -488 469 -214 166 -472 323 -702 427 -54 24 -98 47 -98 50 0 18 295 174 385 204 138 45 466 288 684 505 289 289 504 596 696 993 181 374 258 625 311 1022 25 184 25 648 0 825 -73 522 -241 960 -541 1410 -353 531 -882 963 -1491 1219 -415 174 -817 255 -1264 255 -611 0 -1119 -142 -1615 -449 -55 -34 -143 -87 -195 -117 -52 -31 -130 -81 -173 -112 -43 -31 -80 -56 -81 -56 -2 0 2 28 10 63 49 229 42 622 -17 975 -188 1130 -958 2096 -2020 2532 -303 125 -602 200 -936 235 -149 16 -531 18 -668 4z m575 -7435 c738 -109 1360 -618 1620 -1324 85 -230 124 -456 124 -725 0 -295 -43 -523 -148 -783 -292 -722 -965 -1206 -1758 -1262 -411 -29 -837 72 -1187 282 -461 276 -803 730 -935 1239 -52 201 -60 279 -60 529 0 213 3 248 27 372 80 408 264 766 548 1062 340 356 798 579 1285 625 125 12 348 5 484 -15z"/></g><text x="0" y="4111" fill="#000000" font-size="5px" font-weight="bold" font-family="'Helvetica Neue', Helvetica, Arial-Unicode, Arial, Sans-serif">Created by Dumitriu Robert</text><text x="0" y="4116" fill="#000000" font-size="5px" font-weight="bold" font-family="'Helvetica Neue', Helvetica, Arial-Unicode, Arial, Sans-serif">from the Noun Project</text></svg>